<svg width="23" height="25" viewBox="0 0 23 25" fill="none" xmlns="http://www.w3.org/2000/svg">
<path d="M1.93244 13.539L12.0971 3.37435C14.0505 1.42096 17.2148 1.42096 19.1682 3.37435C21.1215 5.32773 21.1215 8.49203 19.1682 10.4454L8.11962 21.494C6.89986 22.7137 4.91996 22.7137 3.7002 21.494C2.48044 20.2742 2.48044 18.2943 3.7002 17.0745L12.981 7.79376C13.4671 7.30763 14.2626 7.30763 14.7487 7.79376C15.2349 8.2799 15.2349 9.07539 14.7487 9.56153L6.35185 17.9584L7.67768 19.2842L16.0746 10.8874C17.2943 9.6676 17.2943 7.6877 16.0746 6.46794C14.8548 5.24818 12.8749 5.24818 11.6552 6.46794L2.37438 15.7487C0.420996 17.7021 0.420996 20.8664 2.37438 22.8198C4.32776 24.7732 7.49206 24.7732 9.44545 22.8198L20.494 11.7712C23.181 9.08423 23.181 4.73553 20.494 2.04852C17.807 -0.638485 13.4583 -0.638484 10.7713 2.04852L0.606611 12.2132L1.93244 13.539Z" fill="#0F0439"/>
</svg>
