<svg width="6" height="22" viewBox="0 0 6 22" fill="none" xmlns="http://www.w3.org/2000/svg">
<path d="M2.99992 5.66668C4.46659 5.66668 5.66659 4.46668 5.66659 3.00001C5.66659 1.53334 4.46659 0.333344 2.99992 0.333344C1.53325 0.333344 0.333252 1.53334 0.333252 3.00001C0.333252 4.46668 1.53325 5.66668 2.99992 5.66668ZM2.99992 8.33334C1.53325 8.33334 0.333252 9.53334 0.333252 11C0.333252 12.4667 1.53325 13.6667 2.99992 13.6667C4.46659 13.6667 5.66659 12.4667 5.66659 11C5.66659 9.53334 4.46659 8.33334 2.99992 8.33334ZM2.99992 16.3333C1.53325 16.3333 0.333252 17.5333 0.333252 19C0.333252 20.4667 1.53325 21.6667 2.99992 21.6667C4.46659 21.6667 5.66659 20.4667 5.66659 19C5.66659 17.5333 4.46659 16.3333 2.99992 16.3333Z" fill="#0F0439"/>
</svg>
