<svg width="13" height="11" viewBox="0 0 13 11" fill="none" xmlns="http://www.w3.org/2000/svg">
<path d="M6.31524 2.32516C7.89979 2.32516 9.1858 3.61117 9.1858 5.19572C9.1858 5.48852 9.12839 5.76983 9.04802 6.03392L10.8048 7.79071C11.6028 7.08455 12.2343 6.20042 12.6305 5.18998C11.6373 2.67537 9.1858 0.889875 6.31524 0.889875C5.58612 0.889875 4.8857 1.0047 4.22547 1.21712L5.47129 2.46294C5.74113 2.38257 6.02244 2.32516 6.31524 2.32516ZM1.38935 0L0.579854 0.81524L2.11848 2.35386C1.18267 3.08873 0.442067 4.06472 0 5.19572C0.993215 7.71607 3.44468 9.50156 6.31524 9.50156C7.18789 9.50156 8.02035 9.32933 8.78967 9.03079L10.7589 11L11.5684 10.1905L1.38935 0ZM6.31524 8.06628C4.73069 8.06628 3.44468 6.78027 3.44468 5.19572C3.44468 4.75365 3.54802 4.33455 3.72599 3.96712L4.62735 4.86848C4.61013 4.97182 4.5929 5.0809 4.5929 5.19572C4.5929 6.14875 5.36221 6.91806 6.31524 6.91806C6.43006 6.91806 6.5334 6.90084 6.64248 6.87787L7.54384 7.77923C7.17067 7.96294 6.75731 8.06628 6.31524 8.06628ZM8.02036 5.00626C7.93424 4.20251 7.30271 3.57672 6.5047 3.49061L8.02036 5.00626Z" fill="black"/>
</svg>
