<svg width="40" height="22" viewBox="0 0 40 22" fill="none" xmlns="http://www.w3.org/2000/svg">
<path d="M13.3333 8.33333H8.33333V3.33333H5V8.33333H0V11.6667H5V16.6667H8.33333V11.6667H13.3333V8.33333ZM30 10C32.7667 10 34.9833 7.76667 34.9833 5C34.9833 2.23333 32.7667 0 30 0C29.4667 0 28.95 0.0833331 28.4833 0.233333C29.4333 1.58333 29.9833 3.21667 29.9833 5C29.9833 6.78333 29.4167 8.4 28.4833 9.76667C28.95 9.91667 29.4667 10 30 10ZM21.6667 10C24.4333 10 26.65 7.76667 26.65 5C26.65 2.23333 24.4333 0 21.6667 0C18.9 0 16.6667 2.23333 16.6667 5C16.6667 7.76667 18.9 10 21.6667 10ZM32.7 13.6C34.0833 14.8167 35 16.3667 35 18.3333V21.6667H40V18.3333C40 15.7667 36.05 14.1833 32.7 13.6ZM21.6667 13.3333C18.3333 13.3333 11.6667 15 11.6667 18.3333V21.6667H31.6667V18.3333C31.6667 15 25 13.3333 21.6667 13.3333Z" fill="#00FEA3"/>
</svg>
