<svg width="23" height="23" viewBox="0 0 23 23" fill="none" xmlns="http://www.w3.org/2000/svg">
<path d="M17.5238 20.8095H2.19048V5.47619H12.0476V3.28571H2.19048C0.985714 3.28571 0 4.27143 0 5.47619V20.8095C0 22.0143 0.985714 23 2.19048 23H17.5238C18.7286 23 19.7143 22.0143 19.7143 20.8095V10.9524H17.5238V20.8095ZM8.99191 17.3376L6.84524 14.7529L3.83333 18.619H15.881L12.0038 13.4605L8.99191 17.3376ZM19.7143 3.28571V0H17.5238V3.28571H14.2381C14.249 3.29667 14.2381 5.47619 14.2381 5.47619H17.5238V8.75095C17.5348 8.7619 19.7143 8.75095 19.7143 8.75095V5.47619H23V3.28571H19.7143Z" fill="#F3FEFF"/>
</svg>
