<svg width="22" height="22" viewBox="0 0 22 22" fill="none" xmlns="http://www.w3.org/2000/svg">
<path d="M12.0833 5.58335H9.91663V9.91669H5.58329V12.0834H9.91663V16.4167H12.0833V12.0834H16.4166V9.91669H12.0833V5.58335ZM11 0.166687C5.03079 0.166687 0.166626 5.03085 0.166626 11C0.166626 16.9692 5.03079 21.8334 11 21.8334C16.9691 21.8334 21.8333 16.9692 21.8333 11C21.8333 5.03085 16.9691 0.166687 11 0.166687ZM11 19.6667C6.22246 19.6667 2.33329 15.7775 2.33329 11C2.33329 6.22252 6.22246 2.33335 11 2.33335C15.7775 2.33335 19.6666 6.22252 19.6666 11C19.6666 15.7775 15.7775 19.6667 11 19.6667Z" fill="#00FEA3"/>
</svg>
